<mxfile><diagram id="iHgEyVlexSGN2adajFrO" name="Page-1"><mxGraphModel dx="1386" dy="779" grid="0" gridSize="10" guides="0" tooltips="1" connect="0" arrows="0" fold="1" page="1" pageScale="1" pageWidth="850" pageHeight="1100" background="#1A1A1A" math="0" shadow="0"><root><mxCell id="0"/><mxCell id="1" parent="0"/><mxCell id="2" value="" style="edgeStyle=orthogonalEdgeStyle;rounded=1;orthogonalLoop=1;jettySize=auto;exitX=1;exitY=0.5;exitDx=0;exitDy=0;startArrow=none;startFill=0;endArrow=none;endFill=0;labelBackgroundColor=none;fontColor=#EDEDED;fontFamily=Comic Sans MS;spacingTop=0;sketch=1;curveFitting=1;jiggle=2;fontSize=14;html=1;" edge="1" parent="1" source="4" target="14"><mxGeometry relative="1" as="geometry"/></mxCell><mxCell id="3" value="M " style="edgeLabel;align=center;verticalAlign=middle;resizable=0;points=[];strokeColor=#BAC8D3;fontColor=#EDEDED;fillColor=#B1DDF0;rounded=1;fontFamily=Comic Sans MS;spacingTop=0;sketch=1;curveFitting=1;jiggle=2;fontSize=14;html=1;" vertex="1" connectable="0" parent="2"><mxGeometry x="-0.1" y="-1" relative="1" as="geometry"><mxPoint as="offset"/></mxGeometry></mxCell><mxCell id="4" value="User" style="swimlane;whiteSpace=wrap;startSize=23;labelBackgroundColor=none;fillColor=none;strokeColor=#0e8088;rounded=1;fontColor=#EDEDED;fontFamily=Comic Sans MS;spacingTop=0;sketch=1;curveFitting=1;jiggle=2;fontSize=14;html=1;" vertex="1" parent="1"><mxGeometry x="267" y="219" width="132" height="145" as="geometry"/></mxCell><mxCell id="5" value="userID (PK)&lt;br&gt;userEmail&lt;br&gt;userPassword&amp;nbsp;&lt;br&gt;userName&lt;br&gt;roleID (FK)" style="text;align=center;verticalAlign=middle;resizable=0;points=[];autosize=1;strokeColor=none;fillColor=none;labelBackgroundColor=none;rounded=1;fontFamily=Comic Sans MS;fontColor=#EDEDED;spacingTop=0;sketch=1;curveFitting=1;jiggle=2;fontSize=14;html=1;" vertex="1" parent="4"><mxGeometry x="11" y="28" width="111" height="108" as="geometry"/></mxCell><mxCell id="6" value="Role" style="swimlane;whiteSpace=wrap;labelBackgroundColor=none;fillColor=#b0e3e6;strokeColor=#0e8088;rounded=1;fontFamily=Comic Sans MS;fontColor=#EDEDED;spacingTop=0;sketch=1;curveFitting=1;jiggle=2;fontSize=14;html=1;" vertex="1" parent="1"><mxGeometry x="559" y="236" width="108" height="102" as="geometry"/></mxCell><mxCell id="7" value="roleID (PK)&lt;br&gt;roleName&lt;br&gt;rolePermission" style="text;align=center;verticalAlign=middle;resizable=0;points=[];autosize=1;strokeColor=none;fillColor=none;labelBackgroundColor=none;rounded=1;fontFamily=Comic Sans MS;fontColor=#EDEDED;spacingTop=0;sketch=1;curveFitting=1;jiggle=2;fontSize=14;html=1;" vertex="1" parent="6"><mxGeometry x="-4" y="33" width="112" height="69" as="geometry"/></mxCell><mxCell id="8" value="Waste Transfer Entry" style="swimlane;whiteSpace=wrap;labelBackgroundColor=none;fillColor=#b0e3e6;strokeColor=#0e8088;rounded=1;fontFamily=Comic Sans MS;fontColor=#EDEDED;spacingTop=0;sketch=1;curveFitting=1;jiggle=2;fontSize=14;html=1;" vertex="1" parent="1"><mxGeometry x="599" y="546" width="184" height="175" as="geometry"/></mxCell><mxCell id="9" value="wasteTransferID (PK)&amp;nbsp;&lt;br&gt;wasteTransferVolume&lt;br&gt;transferArrivalTime&lt;br&gt;transferDepartureTime&lt;br&gt;stsID (FK)&lt;br&gt;landfillsID (FK)&lt;br&gt;vehicleID (FK)" style="text;align=left;verticalAlign=middle;resizable=0;points=[];autosize=1;strokeColor=none;fillColor=none;labelBackgroundColor=none;rounded=1;fontFamily=Comic Sans MS;fontColor=#EDEDED;spacingTop=0;sketch=1;curveFitting=1;jiggle=2;fontSize=14;html=1;" vertex="1" parent="8"><mxGeometry x="10" y="31" width="174" height="144" as="geometry"/></mxCell><mxCell id="10" value="" style="edgeStyle=orthogonalEdgeStyle;rounded=1;orthogonalLoop=1;jettySize=auto;exitX=0.75;exitY=0;exitDx=0;exitDy=0;entryX=1;entryY=0.5;entryDx=0;entryDy=0;endArrow=none;endFill=0;fontFamily=Comic Sans MS;fontColor=#EDEDED;spacingTop=0;sketch=1;curveFitting=1;jiggle=2;fontSize=14;html=1;" edge="1" parent="1" source="12" target="56"><mxGeometry relative="1" as="geometry"/></mxCell><mxCell id="11" value="1" style="edgeLabel;align=center;verticalAlign=middle;resizable=0;points=[];rounded=1;fontFamily=Comic Sans MS;fontColor=#EDEDED;spacingTop=0;sketch=1;curveFitting=1;jiggle=2;fontSize=14;html=1;" vertex="1" connectable="0" parent="10"><mxGeometry x="0.2445" relative="1" as="geometry"><mxPoint as="offset"/></mxGeometry></mxCell><mxCell id="12" value="Vehicle " style="swimlane;whiteSpace=wrap;labelBackgroundColor=none;fillColor=#b0e3e6;strokeColor=#0e8088;rounded=1;fontFamily=Comic Sans MS;fontColor=#EDEDED;spacingTop=0;sketch=1;curveFitting=1;jiggle=2;fontSize=14;html=1;" vertex="1" parent="1"><mxGeometry x="949" y="571" width="125.5" height="121" as="geometry"/></mxCell><mxCell id="13" value="vehicleID (PK)&lt;br&gt;vehicleNumber&lt;br&gt;vehicleType&lt;br&gt;vehicleCapacity" style="text;align=left;verticalAlign=middle;resizable=0;points=[];autosize=1;strokeColor=none;fillColor=none;labelBackgroundColor=none;rounded=1;fontFamily=Comic Sans MS;fontColor=#EDEDED;spacingTop=0;sketch=1;curveFitting=1;jiggle=2;fontSize=14;html=1;" vertex="1" parent="12"><mxGeometry x="7.5" y="35" width="118" height="86" as="geometry"/></mxCell><mxCell id="14" value="is&amp;nbsp;&lt;br&gt;&lt;br&gt;associated with" style="rhombus;whiteSpace=wrap;labelBackgroundColor=none;fillColor=#b0e3e6;strokeColor=#0e8088;rounded=1;fontFamily=Comic Sans MS;fontColor=#EDEDED;spacingTop=0;sketch=1;curveFitting=1;jiggle=2;fontSize=14;html=1;" vertex="1" parent="1"><mxGeometry x="439" y="251" width="80" height="80" as="geometry"/></mxCell><mxCell id="15" value="" style="edgeStyle=orthogonalEdgeStyle;rounded=1;orthogonalLoop=1;jettySize=auto;exitX=1;exitY=0.5;exitDx=0;exitDy=0;entryX=0;entryY=0.5;entryDx=0;entryDy=0;endArrow=none;endFill=0;fontFamily=Comic Sans MS;fontColor=#EDEDED;spacingTop=0;sketch=1;curveFitting=1;jiggle=2;fontSize=14;html=1;" edge="1" parent="1" source="17" target="53"><mxGeometry relative="1" as="geometry"/></mxCell><mxCell id="16" value="1" style="edgeLabel;align=center;verticalAlign=middle;resizable=0;points=[];rounded=1;fontFamily=Comic Sans MS;fontColor=#EDEDED;spacingTop=0;sketch=1;curveFitting=1;jiggle=2;fontSize=14;html=1;" vertex="1" connectable="0" parent="15"><mxGeometry x="-0.0256" y="1" relative="1" as="geometry"><mxPoint as="offset"/></mxGeometry></mxCell><mxCell id="17" value="Secondary Transfer Station (STS)" style="swimlane;whiteSpace=wrap;startSize=23;align=center;labelBackgroundColor=none;fillColor=#b0e3e6;strokeColor=#0e8088;rounded=1;fontFamily=Comic Sans MS;fontColor=#EDEDED;spacingTop=0;sketch=1;curveFitting=1;jiggle=2;fontSize=14;html=1;" vertex="1" parent="1"><mxGeometry x="389" y="516" width="150" height="135" as="geometry"/></mxCell><mxCell id="18" value="stsID (PK)&lt;br&gt;stsWardNo&lt;br&gt;stsCapacity&lt;br&gt;stsGpsCoords&lt;br&gt;stsManagerID (FK)" style="text;align=left;verticalAlign=middle;resizable=0;points=[];autosize=1;strokeColor=none;fillColor=none;labelBackgroundColor=none;rounded=1;fontFamily=Comic Sans MS;fontColor=#EDEDED;spacingTop=0;sketch=1;curveFitting=1;jiggle=2;fontSize=14;html=1;" vertex="1" parent="17"><mxGeometry x="5" y="30" width="143" height="105" as="geometry"/></mxCell><mxCell id="19" value="" style="edgeStyle=orthogonalEdgeStyle;rounded=1;orthogonalLoop=1;jettySize=auto;exitX=1;exitY=0.5;exitDx=0;exitDy=0;entryX=-0.007;entryY=0.456;entryDx=0;entryDy=0;entryPerimeter=0;endArrow=none;endFill=0;labelBackgroundColor=none;fontColor=#EDEDED;fontFamily=Comic Sans MS;spacingTop=0;sketch=1;curveFitting=1;jiggle=2;fontSize=14;html=1;" edge="1" parent="1" source="14" target="7"><mxGeometry relative="1" as="geometry"/></mxCell><mxCell id="20" value=" 1 " style="edgeLabel;align=center;verticalAlign=middle;resizable=0;points=[];strokeColor=#BAC8D3;fontColor=#EDEDED;fillColor=#B1DDF0;rounded=1;fontFamily=Comic Sans MS;spacingTop=0;sketch=1;curveFitting=1;jiggle=2;fontSize=14;html=1;" vertex="1" connectable="0" parent="19"><mxGeometry x="0.0491" y="2" relative="1" as="geometry"><mxPoint as="offset"/></mxGeometry></mxCell><mxCell id="21" value="Waste Collection Entry" style="swimlane;whiteSpace=wrap;labelBackgroundColor=none;fillColor=#b1ddf0;strokeColor=#10739e;rounded=1;fontFamily=Comic Sans MS;fontColor=#EDEDED;spacingTop=0;sketch=1;curveFitting=1;jiggle=2;fontSize=14;html=1;" vertex="1" parent="1"><mxGeometry x="729" y="226" width="190" height="155" as="geometry"/></mxCell><mxCell id="22" value="wasteCollectionId&lt;br&gt;wasteCollectionVolume&lt;br&gt;collectionArrivalTime&lt;br&gt;collectionDepartureTime&lt;br&gt;stsID (FK)&lt;br&gt;vehicleID (FK)" style="text;align=left;verticalAlign=middle;resizable=0;points=[];autosize=1;strokeColor=none;fillColor=none;labelBackgroundColor=none;rounded=1;fontFamily=Comic Sans MS;fontColor=#EDEDED;spacingTop=0;sketch=1;curveFitting=1;jiggle=2;fontSize=14;html=1;" vertex="1" parent="21"><mxGeometry x="10" y="30" width="180" height="125" as="geometry"/></mxCell><mxCell id="23" value="" style="edgeStyle=orthogonalEdgeStyle;rounded=1;orthogonalLoop=1;jettySize=auto;exitX=0.5;exitY=1;exitDx=0;exitDy=0;entryX=0.5;entryY=0;entryDx=0;entryDy=0;endArrow=none;endFill=0;fontFamily=Comic Sans MS;fontColor=#EDEDED;spacingTop=0;labelBorderColor=default;strokeColor=#000000;sketch=1;curveFitting=1;jiggle=2;fontSize=14;html=1;" edge="1" parent="1" source="25" target="12"><mxGeometry relative="1" as="geometry"/></mxCell><mxCell id="24" value="1" style="edgeLabel;align=center;verticalAlign=middle;resizable=0;points=[];rounded=1;fontFamily=Comic Sans MS;fontColor=#EDEDED;spacingTop=0;sketch=1;curveFitting=1;jiggle=2;fontSize=14;html=1;" vertex="1" connectable="0" parent="23"><mxGeometry x="-0.0769" y="1" relative="1" as="geometry"><mxPoint as="offset"/></mxGeometry></mxCell><mxCell id="25" value="Collected&amp;nbsp;&lt;br&gt;by" style="rhombus;whiteSpace=wrap;labelBackgroundColor=none;fillColor=#b1ddf0;strokeColor=#10739e;rounded=1;fontFamily=Comic Sans MS;fontColor=#EDEDED;spacingTop=0;sketch=1;curveFitting=1;jiggle=2;fontSize=14;html=1;" vertex="1" parent="1"><mxGeometry x="779" y="426" width="80" height="80" as="geometry"/></mxCell><mxCell id="26" value="" style="edgeStyle=orthogonalEdgeStyle;rounded=1;orthogonalLoop=1;jettySize=auto;exitX=0.5;exitY=0;exitDx=0;exitDy=0;entryX=0.562;entryY=0.977;entryDx=0;entryDy=0;entryPerimeter=0;endArrow=none;endFill=0;endSize=3;labelBackgroundColor=none;fontColor=#EDEDED;fontFamily=Comic Sans MS;spacingTop=0;sketch=1;curveFitting=1;jiggle=2;fontSize=14;html=1;" edge="1" parent="1" source="25" target="22"><mxGeometry relative="1" as="geometry"/></mxCell><mxCell id="27" value="M" style="edgeLabel;align=center;verticalAlign=middle;resizable=0;points=[];rounded=1;fontFamily=Comic Sans MS;fontColor=#EDEDED;spacingTop=0;sketch=1;curveFitting=1;jiggle=2;fontSize=14;html=1;" vertex="1" connectable="0" parent="26"><mxGeometry x="0.1744" y="1" relative="1" as="geometry"><mxPoint as="offset"/></mxGeometry></mxCell><mxCell id="28" value="" style="edgeStyle=orthogonalEdgeStyle;rounded=1;orthogonalLoop=1;jettySize=auto;exitX=1;exitY=0.5;exitDx=0;exitDy=0;strokeColor=#EEEEEE;fontColor=#EDEDED;fontFamily=Comic Sans MS;spacingTop=0;sketch=1;curveFitting=1;jiggle=2;fontSize=14;html=1;" edge="1" parent="1" source="31"><mxGeometry relative="1" as="geometry"><mxPoint x="939" y="621" as="targetPoint"/></mxGeometry></mxCell><mxCell id="29" value="" style="edgeStyle=orthogonalEdgeStyle;rounded=1;orthogonalLoop=1;jettySize=auto;exitX=1;exitY=0.5;exitDx=0;exitDy=0;strokeColor=#000000;fontColor=#EDEDED;endArrow=none;endFill=0;fontFamily=Comic Sans MS;spacingTop=0;sketch=1;curveFitting=1;jiggle=2;fontSize=14;html=1;" edge="1" parent="1" source="31"><mxGeometry relative="1" as="geometry"><mxPoint x="949" y="621" as="targetPoint"/></mxGeometry></mxCell><mxCell id="30" value=" 1 " style="edgeLabel;align=center;verticalAlign=middle;resizable=0;points=[];strokeColor=#BAC8D3;fontColor=#EDEDED;fillColor=#B1DDF0;rounded=1;fontFamily=Comic Sans MS;spacingTop=0;sketch=1;curveFitting=1;jiggle=2;fontSize=14;html=1;" vertex="1" connectable="0" parent="29"><mxGeometry x="0.0349" y="-1" relative="1" as="geometry"><mxPoint as="offset"/></mxGeometry></mxCell><mxCell id="31" value="transferred&lt;br&gt;by" style="rhombus;whiteSpace=wrap;labelBackgroundColor=none;fillColor=#b0e3e6;strokeColor=#0e8088;rounded=1;fontFamily=Comic Sans MS;fontColor=#EDEDED;spacingTop=0;sketch=1;curveFitting=1;jiggle=2;fontSize=14;html=1;" vertex="1" parent="1"><mxGeometry x="799" y="586" width="80" height="70" as="geometry"/></mxCell><mxCell id="32" value="" style="edgeStyle=orthogonalEdgeStyle;rounded=1;orthogonalLoop=1;jettySize=auto;exitX=0;exitY=0.5;exitDx=0;exitDy=0;entryX=0.986;entryY=0.382;entryDx=0;entryDy=0;entryPerimeter=0;endArrow=none;endFill=0;labelBackgroundColor=none;fontColor=#EDEDED;fontFamily=Comic Sans MS;spacingTop=0;sketch=1;curveFitting=1;jiggle=2;fontSize=14;html=1;" edge="1" parent="1" source="31" target="9"><mxGeometry relative="1" as="geometry"/></mxCell><mxCell id="33" value=" M " style="edgeLabel;align=center;verticalAlign=middle;resizable=0;points=[];strokeColor=#BAC8D3;fontColor=#EDEDED;fillColor=#B1DDF0;rounded=1;fontFamily=Comic Sans MS;spacingTop=0;sketch=1;curveFitting=1;jiggle=2;fontSize=14;html=1;" vertex="1" connectable="0" parent="32"><mxGeometry x="-0.0815" relative="1" as="geometry"><mxPoint x="1" as="offset"/></mxGeometry></mxCell><mxCell id="34" value="manages" style="rhombus;whiteSpace=wrap;fillColor=#b0e3e6;strokeColor=#0e8088;rounded=1;fontFamily=Comic Sans MS;fontColor=#EDEDED;spacingTop=0;sketch=1;curveFitting=1;jiggle=2;fontSize=14;html=1;" vertex="1" parent="1"><mxGeometry x="414" y="416" width="80" height="60" as="geometry"/></mxCell><mxCell id="35" value="" style="edgeStyle=orthogonalEdgeStyle;rounded=1;orthogonalLoop=1;jettySize=auto;exitX=0.5;exitY=0;exitDx=0;exitDy=0;entryX=0.5;entryY=1;entryDx=0;entryDy=0;endArrow=none;endFill=0;fontFamily=Comic Sans MS;fontColor=#EDEDED;spacingTop=0;sketch=1;curveFitting=1;jiggle=2;fontSize=14;html=1;" edge="1" parent="1" source="34" target="4"><mxGeometry relative="1" as="geometry"/></mxCell><mxCell id="36" value="1" style="edgeLabel;align=center;verticalAlign=middle;resizable=0;points=[];rounded=1;fontFamily=Comic Sans MS;fontColor=#EDEDED;spacingTop=0;sketch=1;curveFitting=1;jiggle=2;fontSize=14;html=1;" vertex="1" connectable="0" parent="35"><mxGeometry x="-0.0196" y="-1" relative="1" as="geometry"><mxPoint as="offset"/></mxGeometry></mxCell><mxCell id="37" value="" style="edgeStyle=orthogonalEdgeStyle;rounded=1;orthogonalLoop=1;jettySize=auto;exitX=0.5;exitY=1;exitDx=0;exitDy=0;entryX=0.436;entryY=-0.006;entryDx=0;entryDy=0;entryPerimeter=0;endArrow=none;endFill=0;fontFamily=Comic Sans MS;fontColor=#EDEDED;spacingTop=0;sketch=1;curveFitting=1;jiggle=2;fontSize=14;html=1;" edge="1" parent="1" source="34" target="17"><mxGeometry relative="1" as="geometry"/></mxCell><mxCell id="38" value="1" style="edgeLabel;align=center;verticalAlign=middle;resizable=0;points=[];rounded=1;fontFamily=Comic Sans MS;fontColor=#EDEDED;spacingTop=0;sketch=1;curveFitting=1;jiggle=2;fontSize=14;html=1;" vertex="1" connectable="0" parent="37"><mxGeometry x="0.0177" y="-1" relative="1" as="geometry"><mxPoint as="offset"/></mxGeometry></mxCell><mxCell id="39" value="Billing" style="swimlane;whiteSpace=wrap;labelBackgroundColor=none;fillColor=#b0e3e6;strokeColor=#0e8088;rounded=1;fontFamily=Comic Sans MS;fontColor=#EDEDED;spacingTop=0;sketch=1;curveFitting=1;jiggle=2;fontSize=14;html=1;" vertex="1" parent="1"><mxGeometry x="959" y="206" width="151.75" height="124" as="geometry"/></mxCell><mxCell id="40" value="billingID (PK)&lt;br&gt;oilAllocationAmount&lt;br&gt;&lt;br&gt;" style="text;align=left;verticalAlign=middle;resizable=0;points=[];autosize=1;strokeColor=none;fillColor=none;labelBackgroundColor=none;rounded=1;fontFamily=Comic Sans MS;fontColor=#EDEDED;spacingTop=0;sketch=1;curveFitting=1;jiggle=2;fontSize=14;html=1;" vertex="1" parent="39"><mxGeometry x="3.75" y="29" width="148" height="95" as="geometry"/></mxCell><mxCell id="41" value="" style="edgeStyle=orthogonalEdgeStyle;rounded=1;orthogonalLoop=1;jettySize=auto;exitX=1;exitY=0.5;exitDx=0;exitDy=0;entryX=0;entryY=0.5;entryDx=0;entryDy=0;endArrow=none;endFill=0;fontFamily=Comic Sans MS;fontColor=#EDEDED;spacingTop=0;sketch=1;curveFitting=1;jiggle=2;fontSize=14;html=1;" edge="1" parent="1" source="43" target="47"><mxGeometry relative="1" as="geometry"/></mxCell><mxCell id="42" value=" 1 " style="edgeLabel;align=center;verticalAlign=middle;resizable=0;points=[];rounded=1;fontFamily=Comic Sans MS;fontColor=#EDEDED;spacingTop=0;sketch=1;curveFitting=1;jiggle=2;fontSize=14;html=1;" vertex="1" connectable="0" parent="41"><mxGeometry x="-0.1243" y="-2" relative="1" as="geometry"><mxPoint as="offset"/></mxGeometry></mxCell><mxCell id="43" value="Landfill" style="swimlane;whiteSpace=wrap;labelBackgroundColor=none;fillColor=#b0e3e6;strokeColor=#0e8088;rounded=1;fontFamily=Comic Sans MS;fontColor=#EDEDED;spacingTop=0;sketch=1;curveFitting=1;jiggle=2;fontSize=14;html=1;" vertex="1" parent="1"><mxGeometry x="400.25" y="701" width="121.75" height="104" as="geometry"/></mxCell><mxCell id="44" value="landfillID (PK)&lt;br&gt;landfillName&lt;br&gt;landfillLocation" style="text;align=left;verticalAlign=middle;resizable=0;points=[];autosize=1;strokeColor=none;fillColor=none;labelBackgroundColor=none;rounded=1;fontFamily=Comic Sans MS;fontColor=#EDEDED;spacingTop=0;sketch=1;curveFitting=1;jiggle=2;fontSize=14;html=1;" vertex="1" parent="43"><mxGeometry x="3.75" y="38" width="118" height="66" as="geometry"/></mxCell><mxCell id="45" value="" style="edgeStyle=orthogonalEdgeStyle;rounded=1;orthogonalLoop=1;jettySize=auto;exitX=0.5;exitY=0;exitDx=0;exitDy=0;endArrow=none;endFill=0;fontFamily=Comic Sans MS;fontColor=#EDEDED;spacingTop=0;sketch=1;curveFitting=1;jiggle=2;fontSize=14;html=1;" edge="1" parent="1" source="47" target="9"><mxGeometry relative="1" as="geometry"/></mxCell><mxCell id="46" value=" M " style="edgeLabel;align=center;verticalAlign=middle;resizable=0;points=[];rounded=1;fontFamily=Comic Sans MS;fontColor=#EDEDED;spacingTop=0;sketch=1;curveFitting=1;jiggle=2;fontSize=14;html=1;" vertex="1" connectable="0" parent="45"><mxGeometry x="0.192" y="-3" relative="1" as="geometry"><mxPoint as="offset"/></mxGeometry></mxCell><mxCell id="47" value="receives" style="rhombus;whiteSpace=wrap;labelBackgroundColor=none;fillColor=#b0e3e6;strokeColor=#0e8088;rounded=1;fontFamily=Comic Sans MS;fontColor=#EDEDED;spacingTop=0;sketch=1;curveFitting=1;jiggle=2;fontSize=14;html=1;" vertex="1" parent="1"><mxGeometry x="589" y="776" width="80" height="70" as="geometry"/></mxCell><mxCell id="48" value="Assigns" style="rhombus;whiteSpace=wrap;fillColor=#b0e3e6;strokeColor=#0e8088;rounded=1;fontFamily=Comic Sans MS;fontColor=#EDEDED;spacingTop=0;sketch=1;curveFitting=1;jiggle=2;fontSize=14;html=1;" vertex="1" parent="1"><mxGeometry x="269" y="771" width="80" height="80" as="geometry"/></mxCell><mxCell id="49" value="" style="edgeStyle=orthogonalEdgeStyle;rounded=1;orthogonalLoop=1;jettySize=auto;exitX=0;exitY=0.5;exitDx=0;exitDy=0;entryX=0.5;entryY=0;entryDx=0;entryDy=0;endArrow=none;endFill=0;fontFamily=Comic Sans MS;fontColor=#EDEDED;spacingTop=0;sketch=1;curveFitting=1;jiggle=2;fontSize=14;html=1;" edge="1" parent="1" source="17" target="48"><mxGeometry relative="1" as="geometry"/></mxCell><mxCell id="50" value="1" style="edgeLabel;align=center;verticalAlign=middle;resizable=0;points=[];rounded=1;fontFamily=Comic Sans MS;fontColor=#EDEDED;spacingTop=0;sketch=1;curveFitting=1;jiggle=2;fontSize=14;html=1;" vertex="1" connectable="0" parent="49"><mxGeometry x="0.0861" relative="1" as="geometry"><mxPoint as="offset"/></mxGeometry></mxCell><mxCell id="51" value="" style="edgeStyle=orthogonalEdgeStyle;rounded=1;orthogonalLoop=1;jettySize=auto;exitX=0.5;exitY=1;exitDx=0;exitDy=0;entryX=0.386;entryY=1.058;entryDx=0;entryDy=0;entryPerimeter=0;endArrow=none;endFill=0;fontFamily=Comic Sans MS;fontColor=#EDEDED;spacingTop=0;sketch=1;curveFitting=1;jiggle=2;fontSize=14;html=1;" edge="1" parent="1" source="48" target="13"><mxGeometry relative="1" as="geometry"><Array as="points"><mxPoint x="309" y="886"/><mxPoint x="999" y="886"/></Array></mxGeometry></mxCell><mxCell id="52" value="M" style="edgeLabel;align=center;verticalAlign=middle;resizable=0;points=[];rounded=1;fontFamily=Comic Sans MS;fontColor=#EDEDED;spacingTop=0;sketch=1;curveFitting=1;jiggle=2;fontSize=14;html=1;" vertex="1" connectable="0" parent="51"><mxGeometry x="0.8717" relative="1" as="geometry"><mxPoint as="offset"/></mxGeometry></mxCell><mxCell id="53" value="manages" style="rhombus;whiteSpace=wrap;fillColor=#b0e3e6;strokeColor=#0e8088;rounded=1;fontFamily=Comic Sans MS;fontColor=#EDEDED;spacingTop=0;sketch=1;curveFitting=1;jiggle=2;fontSize=14;html=1;" vertex="1" parent="1"><mxGeometry x="589" y="406" width="80" height="60" as="geometry"/></mxCell><mxCell id="54" value="" style="edgeStyle=orthogonalEdgeStyle;rounded=1;orthogonalLoop=1;jettySize=auto;exitX=1;exitY=0.5;exitDx=0;exitDy=0;endArrow=none;endFill=0;fontFamily=Comic Sans MS;fontColor=#EDEDED;spacingTop=0;sketch=1;curveFitting=1;jiggle=2;fontSize=14;html=1;" edge="1" parent="1" source="53"><mxGeometry relative="1" as="geometry"><mxPoint x="689" y="546" as="targetPoint"/></mxGeometry></mxCell><mxCell id="55" value="M" style="edgeLabel;align=center;verticalAlign=middle;resizable=0;points=[];rounded=1;fontFamily=Comic Sans MS;fontColor=#EDEDED;spacingTop=0;sketch=1;curveFitting=1;jiggle=2;fontSize=14;html=1;" vertex="1" connectable="0" parent="54"><mxGeometry x="-0.0167" y="1" relative="1" as="geometry"><mxPoint as="offset"/></mxGeometry></mxCell><mxCell id="56" value="&lt;br&gt;Generated&amp;nbsp;&lt;br&gt;By" style="rhombus;whiteSpace=wrap;labelBackgroundColor=none;fillColor=#b1ddf0;strokeColor=#10739e;rounded=1;fontFamily=Comic Sans MS;fontColor=#EDEDED;spacingTop=0;sketch=1;curveFitting=1;jiggle=2;fontSize=14;html=1;" vertex="1" parent="1"><mxGeometry x="971.5" y="376" width="80" height="80" as="geometry"/></mxCell><mxCell id="57" value="" style="edgeStyle=orthogonalEdgeStyle;rounded=1;orthogonalLoop=1;jettySize=auto;exitX=0.5;exitY=0;exitDx=0;exitDy=0;entryX=0.372;entryY=0.778;entryDx=0;entryDy=0;entryPerimeter=0;endArrow=none;endFill=0;fontFamily=Comic Sans MS;fontColor=#EDEDED;spacingTop=0;sketch=1;curveFitting=1;jiggle=2;fontSize=14;html=1;" edge="1" parent="1" source="56" target="40"><mxGeometry relative="1" as="geometry"/></mxCell><mxCell id="58" value="M" style="edgeLabel;align=center;verticalAlign=middle;resizable=0;points=[];rounded=1;fontFamily=Comic Sans MS;fontColor=#EDEDED;spacingTop=0;sketch=1;curveFitting=1;jiggle=2;fontSize=14;html=1;" vertex="1" connectable="0" parent="57"><mxGeometry x="-0.0885" y="1" relative="1" as="geometry"><mxPoint y="-1" as="offset"/></mxGeometry></mxCell></root></mxGraphModel></diagram></mxfile>